<svg width="84" height="29" viewBox="0 0 84 29" fill="none" xmlns="http://www.w3.org/2000/svg">
<path d="M75.3099 28.7698V8.05554H78.1997V26.6984H83.4933V28.7698H75.3099Z" fill="black"/>
<path d="M65.1455 28.7698V8.05554H68.0353V26.6984H73.329V28.7698H65.1455Z" fill="black"/>
<path d="M51.4335 28.7698L55.8321 8.05554H58.6196L63.0438 28.7698H60.3074L59.3612 23.5529H55.1416L54.1443 28.7698H51.4335ZM55.5252 21.4815H58.9776L57.2386 12.1473L55.5252 21.4815Z" fill="black"/>
<path d="M44.093 29C42.5927 29 41.4419 28.7016 40.6406 28.1049C39.8393 27.5082 39.2938 26.6728 39.0039 25.5988C38.7141 24.5076 38.5692 23.2375 38.5692 21.7883V8.05554H41.3311V21.9162C41.3311 22.8028 41.3908 23.6126 41.5101 24.3457C41.6295 25.0788 41.8852 25.6584 42.2773 26.0846C42.6865 26.5109 43.2917 26.724 44.093 26.724C44.9114 26.724 45.5166 26.5109 45.9087 26.0846C46.3008 25.6584 46.5566 25.0788 46.6759 24.3457C46.7953 23.6126 46.8549 22.8028 46.8549 21.9162V8.05554H49.5913V21.7883C49.5913 23.2375 49.4463 24.5076 49.1565 25.5988C48.8667 26.6728 48.3211 27.5082 47.5198 28.1049C46.7356 28.7016 45.5933 29 44.093 29Z" fill="black"/>
<path d="M31.5454 29C30.352 29 29.3546 28.7442 28.5533 28.2328C27.7691 27.7213 27.1724 27.0138 26.7632 26.1102C26.354 25.2066 26.1153 24.1581 26.0471 22.9647L28.6045 22.2742C28.6556 23.0073 28.7664 23.7149 28.9369 24.3968C29.1245 25.0788 29.4228 25.6414 29.832 26.0846C30.2411 26.5109 30.8123 26.724 31.5454 26.724C32.2955 26.724 32.8581 26.5194 33.2332 26.1102C33.6253 25.684 33.8214 25.0788 33.8214 24.2945C33.8214 23.3568 33.6083 22.6067 33.1821 22.0441C32.7558 21.4644 32.2188 20.8848 31.571 20.3051L28.093 17.2363C27.411 16.6396 26.9081 15.9918 26.5842 15.2928C26.2603 14.5767 26.0983 13.6987 26.0983 12.6587C26.0983 11.1414 26.533 9.965 27.4025 9.12961C28.272 8.29422 29.4569 7.87653 30.9572 7.87653C31.7755 7.87653 32.4916 7.98734 33.1053 8.20898C33.7362 8.41356 34.2561 8.73749 34.6653 9.18076C35.0915 9.62403 35.424 10.1866 35.6627 10.8686C35.9184 11.5335 36.0889 12.3177 36.1741 13.2213L33.7191 13.8862C33.668 13.2043 33.5657 12.582 33.4122 12.0194C33.2588 11.4397 32.986 10.9794 32.5939 10.6384C32.2188 10.2804 31.6732 10.1014 30.9572 10.1014C30.2411 10.1014 29.6785 10.2975 29.2694 10.6896C28.8772 11.0646 28.6812 11.6273 28.6812 12.3774C28.6812 13.0082 28.7835 13.5282 28.9881 13.9374C29.2097 14.3465 29.5592 14.7642 30.0366 15.1905L33.5401 18.2592C34.3243 18.9412 35.0148 19.7595 35.6115 20.7143C36.2082 21.652 36.5066 22.7686 36.5066 24.0644C36.5066 25.0873 36.2935 25.9738 35.8672 26.724C35.441 27.4571 34.8528 28.0197 34.1027 28.4118C33.3696 28.8039 32.5172 29 31.5454 29Z" fill="black"/>
<path d="M20.471 28.7698V8.05554H23.3096V28.7698H20.471Z" fill="black"/>
<path d="M11.0119 28.7698L8 16H10.5L12.3673 23.3228L17 5H19.5L13.5436 28.7698H11.0119Z" fill="black"/>
<rect x="19" y="5" width="43" height="2" fill="black"/>
<circle cx="66.5" cy="6.5" r="6.5" fill="black"/>
<circle cx="66.5" cy="6.5" r="5.5" fill="#CAF1FF"/>
<path d="M6 16H9V18H4L6 16Z" fill="black"/>
<path d="M4 16H6L4 18H2L4 16Z" fill="#323232"/>
<path d="M2 16H4L2 18H0L2 16Z" fill="#515151"/>
</svg>
